<svg width="32" height="32" viewBox="0 0 32 32" fill="none" xmlns="http://www.w3.org/2000/svg">
<circle cx="16" cy="16" r="16" fill="black" fill-opacity="0.15"/>
<path fill-rule="evenodd" clip-rule="evenodd" d="M1.99999 32V33H30V32H16C23.0434 32 29.0239 27.4488 31.161 21.1268C29.8626 17.3909 27.2538 14.2958 23.8067 12.4235H23.8066L26.4611 7.81084C26.6109 7.55226 26.5203 7.22378 26.266 7.07351C26.0117 6.92325 25.6808 7.01061 25.5345 7.2692L22.8452 11.9413C20.7933 11.0013 18.4838 10.4771 16 10.4771C13.5162 10.4771 11.2066 11.0013 9.15478 11.9413L6.46547 7.2692C6.31568 7.01061 5.98822 6.92325 5.73044 7.07351C5.47265 7.22378 5.38557 7.55226 5.53536 7.81084L8.18983 12.4235C4.74532 14.2958 2.1372 17.3909 0.838989 21.1267C2.97605 27.4488 8.95652 32 16 32H1.99999ZM8.65315 20.4922C7.91115 20.4922 7.31198 19.8877 7.31198 19.1468C7.31198 18.4025 7.91463 17.8015 8.65315 17.8015C9.39514 17.8015 9.99431 18.406 9.99431 19.1468C9.99781 19.8877 9.39514 20.4922 8.65315 20.4922ZM23.3433 20.4922C22.6014 20.4922 22.0022 19.8877 22.0022 19.1468C22.0022 18.4025 22.6048 17.8015 23.3433 17.8015C24.0853 17.8015 24.6845 18.406 24.6845 19.1468C24.688 19.8877 24.0853 20.4922 23.3433 20.4922Z" fill="black"/>
</svg>
