<svg width="32" height="32" viewBox="0 0 32 32" fill="none" xmlns="http://www.w3.org/2000/svg">
<path d="M23.8066 19.4235L26.4611 14.8108C26.6109 14.5523 26.5203 14.2238 26.266 14.0735C26.0117 13.9233 25.6808 14.0106 25.5345 14.2692L22.8452 18.9413C20.7934 18.0013 18.4838 17.4771 16 17.4771C13.5162 17.4771 11.2066 18.0013 9.15479 18.9413L6.46548 14.2692C6.31569 14.0106 5.98823 13.9233 5.73045 14.0735C5.47267 14.2238 5.38558 14.5523 5.53537 14.8108L8.18984 19.4235C3.61244 21.9116 0.512071 26.5592 0 32H32C31.4879 26.5591 28.3875 21.9115 23.8067 19.4235H23.8066ZM8.65316 27.4922C7.91116 27.4922 7.31199 26.8877 7.31199 26.1468C7.31199 25.4025 7.91464 24.8015 8.65316 24.8015C9.39515 24.8015 9.99433 25.406 9.99433 26.1468C9.99782 26.8877 9.39515 27.4922 8.65316 27.4922ZM23.3434 27.4922C22.6014 27.4922 22.0022 26.8877 22.0022 26.1468C22.0022 25.4025 22.6048 24.8015 23.3434 24.8015C24.0854 24.8015 24.6845 25.406 24.6845 26.1468C24.688 26.8877 24.0854 27.4922 23.3434 27.4922Z" fill="black"/>
</svg>
