<svg width="32" height="32" viewBox="0 0 32 32" fill="none" xmlns="http://www.w3.org/2000/svg">
<path fill-rule="evenodd" clip-rule="evenodd" d="M29.7662 7.84444C29.8144 7.92557 29.8152 8.02619 29.7687 8.10813C29.7221 8.19019 29.6351 8.24076 29.5407 8.24063H16.6997C16.6923 8.24063 16.6847 8.24032 16.6772 8.23957C16.4483 8.22007 16.2206 8.21 16 8.21C12.4459 8.21 9.34338 10.6134 8.45525 14.0546C8.42857 14.1577 8.34225 14.2345 8.23669 14.2489C8.22482 14.2505 8.21288 14.2513 8.20113 14.2513C8.10838 14.2513 8.02125 14.202 7.97407 14.1202L3.46994 6.319C3.41594 6.2255 3.42475 6.10857 3.49219 6.02419C6.54932 2.1965 11.1082 0.00119019 16 0.00119019C18.8266 0.00119019 21.6049 0.74844 24.0342 2.16219C26.3914 3.53375 28.3734 5.49869 29.7662 7.84444ZM16 21.9805C12.7028 21.9805 10.0203 19.2982 10.0203 16.0011C10.0203 12.7039 12.7028 10.0215 16 10.0216C19.297 10.0216 21.9793 12.704 21.9793 16.0011C21.9793 19.2982 19.2971 21.9805 16 21.9805ZM18.3643 23.5998C18.2992 23.5156 18.1898 23.4794 18.0867 23.5079C17.4093 23.6965 16.7073 23.7921 16 23.7921C12.9951 23.7921 10.2255 22.0297 8.94419 19.3022C8.94106 19.2956 8.93756 19.289 8.93388 19.2825L2.50869 8.15406C2.46187 8.07275 2.37525 8.02293 2.28156 8.02293H2.28019C2.186 8.02343 2.09919 8.07437 2.05306 8.15637C0.71 10.5396 0 13.2522 0 16.0011C0 19.8574 1.39119 23.5823 3.91731 26.4897C6.41838 29.3681 9.86156 31.2624 13.6129 31.8237C13.6259 31.8257 13.6389 31.8266 13.6518 31.8266C13.7444 31.8266 13.8316 31.7772 13.8789 31.6954L18.3842 23.8919C18.4374 23.7994 18.4296 23.6841 18.3643 23.5998ZM21.6342 9.99088H30.6544C30.7623 9.99088 30.8591 10.0569 30.8986 10.1574C31.6294 12.0189 32 13.9849 32 16.0011C32 20.2429 30.3567 24.2394 27.373 27.2542C24.3917 30.2666 20.4171 31.9517 16.1815 31.9989H16.1786C16.0855 31.9989 15.9993 31.9496 15.9522 31.8691C15.9046 31.7876 15.9043 31.687 15.9514 31.6054L22.3878 20.4576C22.3915 20.4511 22.3954 20.4449 22.3995 20.4389C23.3099 19.1301 23.791 17.5956 23.791 16.0011C23.791 13.8947 22.9599 11.92 21.4506 10.4404C21.3745 10.3659 21.3511 10.2526 21.3914 10.154C21.4315 10.0554 21.5275 9.99088 21.6342 9.99088Z" fill="currentColor"/>
</svg>
