<svg width="32" height="32" viewBox="0 0 32 32" fill="none" xmlns="http://www.w3.org/2000/svg">
<path fill-rule="evenodd" clip-rule="evenodd" d="M27.3137 4.68629C24.3131 1.68571 20.2435 0 16 0C11.7565 0 7.68687 1.68571 4.68629 4.68629C1.68571 7.68687 0 11.7565 0 16C0 20.2435 1.68571 24.3131 4.68629 27.3137C7.68687 30.3143 11.7565 32 16 32C20.2435 32 24.3131 30.3143 27.3137 27.3137C30.3143 24.3131 32 20.2435 32 16C32 11.7565 30.3143 7.68687 27.3137 4.68629ZM7.06252 5.90624C7.18127 5.50624 7.60627 5.26874 8.01252 5.37499C8.42502 5.48749 8.66877 5.90624 8.56877 6.3125L8.56252 6.33749L7.50002 10.275L7.49377 10.2937C7.43399 10.4876 7.30111 10.6507 7.12326 10.7484C6.94541 10.846 6.73654 10.8707 6.54084 10.8171C6.34514 10.7635 6.17797 10.6359 6.0747 10.4612C5.97143 10.2865 5.94016 10.0785 5.98752 9.88125L5.99377 9.8625L7.05627 5.92499L7.06252 5.90624ZM20.7125 6.64999C20.8313 6.24999 21.2563 6.0125 21.6688 6.11874C22.075 6.23125 22.3188 6.64999 22.2188 7.0625V7.08125L21.3813 10.175L21.3125 10.1187C20.8974 9.81375 20.4561 9.54604 19.9938 9.31875L20.7063 6.66875L20.7125 6.64999ZM13.2313 1.89374C13.7231 1.79702 14.2196 1.72609 14.7188 1.68124C14.7434 1.79686 14.7413 1.91658 14.7125 2.03124L14.7063 2.04999L13.6438 5.98749L13.6375 6.00625C13.5749 6.19583 13.442 6.35422 13.2662 6.44891C13.0904 6.5436 12.8851 6.56739 12.6923 6.51539C12.4995 6.4634 12.334 6.33957 12.2296 6.16933C12.1253 5.99909 12.0901 5.79537 12.1313 5.59999L12.1375 5.58124L13.125 1.91249L13.2313 1.89374ZM24.2875 5.17499L24.4938 4.39999L24.5875 4.46874C25.0167 4.7894 25.4278 5.13368 25.8188 5.49999L25.7938 5.58124L25.7875 5.59999C25.7249 5.78958 25.592 5.94797 25.4162 6.04266C25.2404 6.13735 25.0351 6.16114 24.8423 6.10914C24.6495 6.05715 24.4839 5.93332 24.3796 5.76308C24.2753 5.59284 24.2401 5.38912 24.2813 5.19374L24.2875 5.17499ZM17.9375 3.20624L18.3125 1.81249L18.425 1.83124C18.9008 1.91149 19.3723 2.01579 19.8375 2.14374L19.4438 3.61249L19.4375 3.63124C19.3749 3.82083 19.242 3.97922 19.0662 4.07391C18.8904 4.1686 18.6851 4.19239 18.4923 4.14039C18.2995 4.0884 18.1339 3.96457 18.0296 3.79433C17.9253 3.62409 17.8901 3.42037 17.9313 3.22499L17.9375 3.20624ZM7.1 15.6312C7.1 11.9875 10.725 9.05624 15.375 9.05624C17.6125 9.05624 19.5312 9.67499 21.0437 10.8562C22.3312 11.8625 23.275 13.25 23.7625 14.8187L23.775 14.8562L23.7875 14.9L23.8125 14.9812L23.85 15.1312L23.95 15.4812L24.0562 15.8812L24.2375 16.5437L24.525 17.5937L24.9875 19.3187L25.5125 21.2812L26.3562 24.4375L26.675 25.625L26.6062 25.7C24.3812 28.1312 21.3312 29.7937 17.9 30.25L17.8687 30.0437L17.8125 29.6312L17.7625 29.3312L17.7062 28.9375L17.6312 28.4562L17.6 28.2687L17.5312 27.8125L17.4875 27.5437L17.4312 27.1937L17.375 26.8562L17.3187 26.5312L17.2625 26.2125L17.2125 25.9L17.1562 25.6L17.1062 25.3125L17.0687 25.1L17.025 24.8937L17 24.7625L16.95 24.5L16.9125 24.3125L16.8687 24.0812L16.8312 23.9187L16.8 23.7625L16.7687 23.6125L16.75 23.5125L16.7062 23.325L16.675 23.1875L16.6437 23.05L16.6187 22.9625L16.5875 22.8375L16.5625 22.7187L16.5312 22.6L16.5 22.4875L16.4812 22.4187L16.45 22.3125L16.425 22.2125L16.4062 22.1437L16.3812 22.0812L16.3625 22.025L16.3375 21.9375L16.3187 21.875L16.3062 21.8375C16.2725 21.7382 16.2349 21.6402 16.1937 21.5437L16.175 21.5062L16.3187 21.1312L15.75 21.15L15.5937 21.1562C10.4312 21.2625 7.1 19.0687 7.1 15.6312ZM10.3375 26.2687C10.4562 25.8625 10.8812 25.625 11.2875 25.7375C11.7 25.8437 11.9437 26.2625 11.8437 26.675L11.8375 26.6937L11.0812 29.5125L10.975 29.4687C10.5174 29.2981 10.0689 29.1041 9.63125 28.8875L10.3312 26.2875L10.3375 26.2687ZM14.6875 24.3625C14.8062 23.9562 15.2312 23.7187 15.6437 23.8312C15.7478 23.8597 15.8448 23.9093 15.9287 23.9771C16.0126 24.0449 16.0816 24.1293 16.1312 24.225L16.1562 24.3375L16.1937 24.5187L16.2187 24.65L16.2125 24.6812L16.1937 24.7687V24.7875L15.1312 28.725L15.125 28.7437C15.0623 28.9333 14.9295 29.0917 14.7537 29.1864C14.5779 29.2811 14.3725 29.3049 14.1798 29.2529C13.987 29.2009 13.8214 29.0771 13.7171 28.9068C13.6128 28.7366 13.5776 28.5329 13.6187 28.3375V28.3187L14.6812 24.3812L14.6875 24.3625ZM8.1875 19.8937L8.2375 19.775C8.63125 20.1187 9.0875 20.4312 9.5875 20.6937L8.625 24.2687L8.61875 24.2875C8.55897 24.4814 8.4261 24.6444 8.24825 24.7421C8.07039 24.8398 7.86152 24.8644 7.66582 24.8108C7.47012 24.7572 7.30295 24.6296 7.19968 24.4549C7.09641 24.2803 7.06515 24.0723 7.1125 23.875L7.11875 23.8562L8.18125 19.9187L8.1875 19.8937ZM4.75 15.775C4.86875 15.375 5.29375 15.1375 5.70625 15.2437C6.1125 15.3562 6.35625 15.775 6.25625 16.1875V16.2062L5.19375 20.1437L5.1875 20.1625C5.12772 20.3564 4.99485 20.5194 4.817 20.6171C4.63915 20.7148 4.43027 20.7394 4.23457 20.6858C4.03887 20.6322 3.8717 20.5046 3.76843 20.3299C3.66516 20.1553 3.6339 19.9473 3.68125 19.75V19.7312L4.74375 15.7937L4.75 15.775ZM28.575 14.8812C28.6937 14.4812 29.1187 14.2437 29.525 14.35C29.9375 14.4625 30.1812 14.8812 30.0812 15.2875V15.3125L29.0125 19.25V19.2687C28.9578 19.4693 28.8257 19.6399 28.6452 19.7431C28.4647 19.8462 28.2506 19.8734 28.05 19.8187C27.8494 19.764 27.6788 19.6319 27.5757 19.4514C27.4725 19.2709 27.4453 19.0568 27.5 18.8562L27.5062 18.8375L28.5687 14.9L28.575 14.8812ZM1.71875 14.3312C1.93044 12.4938 2.49719 10.715 3.3875 9.09374C3.45077 9.09457 3.51372 9.10297 3.575 9.11874C3.9875 9.23124 4.23125 9.64999 4.13125 10.0625L4.125 10.0812L3.0625 14.0187L3.05625 14.0375C2.9375 14.4375 2.5125 14.675 2.10625 14.5687C1.95625 14.5301 1.82128 14.4474 1.71875 14.3312ZM25.8812 9.64999C26.0062 9.24999 26.425 9.01249 26.8375 9.11874C27.2437 9.23124 27.4937 9.64999 27.3937 10.0625L27.3875 10.0812L26.325 14.0187L26.3187 14.0375C26.259 14.2314 26.1261 14.3944 25.9482 14.4921C25.7704 14.5898 25.5615 14.6144 25.3658 14.5608C25.1701 14.5072 25.0029 14.3796 24.8997 14.2049C24.7964 14.0303 24.7651 13.8223 24.8125 13.625L24.8187 13.6062L25.8812 9.66874V9.64999ZM16.375 11.6875C16.6402 11.6875 16.8946 11.7929 17.0821 11.9804C17.2696 12.1679 17.375 12.4223 17.375 12.6875C17.375 12.9527 17.2696 13.2071 17.0821 13.3946C16.8946 13.5821 16.6402 13.6875 16.375 13.6875C16.1098 13.6875 15.8554 13.5821 15.6679 13.3946C15.4804 13.2071 15.375 12.9527 15.375 12.6875C15.375 12.4223 15.4804 12.1679 15.6679 11.9804C15.8554 11.7929 16.1098 11.6875 16.375 11.6875Z" fill="currentColor"/>
</svg>
