<svg width="32" height="32" viewBox="0 0 32 32" fill="none" xmlns="http://www.w3.org/2000/svg">
<path d="M28.8813 23.8175C28.4546 24.0406 28.0146 24.2373 27.5638 24.4062C26.1287 24.9432 24.6085 25.2168 23.0763 25.2137C17.1613 25.2137 12.0088 21.145 12.0088 15.9237C12.0163 15.2234 12.2107 14.5379 12.5717 13.9378C12.9327 13.3377 13.4474 12.8448 14.0625 12.51C8.71252 12.735 7.33752 18.31 7.33752 21.5762C7.33752 30.8112 15.8488 31.7475 17.6825 31.7475C18.6713 31.7475 20.1625 31.46 21.0575 31.1775L21.2213 31.1225C24.6653 29.9319 27.6014 27.6042 29.5463 24.5225C29.6058 24.4286 29.6324 24.3176 29.6219 24.207C29.6113 24.0963 29.5641 23.9923 29.4878 23.9115C29.4116 23.8306 29.3105 23.7775 29.2007 23.7605C29.0908 23.7434 28.9784 23.7635 28.8813 23.8175Z" fill="black"/>
<path d="M13.2138 30.1775C12.0989 29.4855 11.1326 28.5788 10.3713 27.51C9.50351 26.3211 8.90636 24.9568 8.62172 23.5126C8.33708 22.0685 8.37184 20.5796 8.72356 19.1504C9.07527 17.7211 9.73543 16.3861 10.6577 15.239C11.58 14.0919 12.7421 13.1604 14.0625 12.51C14.4525 12.3263 15.1188 11.9938 16.005 12.01C16.6294 12.0145 17.2443 12.1636 17.8014 12.4456C18.3585 12.7275 18.8428 13.1346 19.2163 13.635C19.7211 14.309 19.9994 15.1255 20.0113 15.9675C20.0113 15.9413 23.0688 6.0175 10.0113 6.0175C4.52377 6.0175 0.0112726 11.225 0.0112726 15.7938C-0.0103725 18.2106 0.506739 20.6018 1.52502 22.7938C3.18918 26.3445 6.09934 29.1604 9.70289 30.7069C13.3064 32.2533 17.3524 32.4226 21.0725 31.1825C19.77 31.5932 18.3938 31.7165 17.039 31.5438C15.6842 31.3712 14.383 30.9067 13.225 30.1825L13.2138 30.1775Z" fill="black" fill-opacity="0.5"/>
<path d="M19.0388 18.6075C18.9375 18.7388 18.6262 18.92 18.6262 19.315C18.6262 19.6413 18.8387 19.955 19.2162 20.2188C21.0138 21.4688 24.4025 21.3038 24.4113 21.3038C25.7432 21.3006 27.0498 20.9401 28.195 20.26C29.3503 19.5855 30.3091 18.6206 30.9763 17.4611C31.6435 16.3016 31.996 14.9878 31.9988 13.65C32.0313 10.8488 30.9988 8.98625 30.5813 8.16125C27.9325 2.98 22.215 7.83303e-08 15.9975 7.83303e-08C11.7927 -0.000415696 7.7568 1.65437 4.7626 4.60646C1.7684 7.55856 0.0566271 11.5706 -0.00250244 15.775C0.0574976 11.2075 4.5975 7.51875 9.9975 7.51875C10.435 7.51875 12.93 7.56125 15.2475 8.7775C17.29 9.85 18.36 11.145 19.1038 12.4288C19.8763 13.7625 20.0138 15.4475 20.0138 16.1187C20.0138 16.79 19.6713 17.785 19.0388 18.6075Z" fill="black"/>
</svg>
