<svg width="32" height="32" viewBox="0 0 32 32" fill="none" xmlns="http://www.w3.org/2000/svg">
<path opacity="0.3" fill-rule="evenodd" clip-rule="evenodd" d="M12 18L10 22H22L20 18L18.1028 18.3162C17.3861 18.4357 16.6499 18.325 16 18V18C15.3501 17.675 14.6139 17.5643 13.8972 17.6838L12 18Z" fill="currentColor"/>
<path fill-rule="evenodd" clip-rule="evenodd" d="M12.5 8C11.6716 8 11 8.67157 11 9.5C11 10.3284 11.6716 11 12.5 11H13V11.917C13 12.6307 12.8472 13.3362 12.5518 13.986L8.96396 21.8793C8.51253 22.8724 9.23857 24 10.3295 24H21.6705C22.7614 24 23.4875 22.8724 23.036 21.8793L19.4482 13.986C19.1528 13.3362 19 12.6307 19 11.917V11H19.5C20.3284 11 21 10.3284 21 9.5C21 8.67157 20.3284 8 19.5 8H12.5ZM19.341 21L16.6137 15H15.3863L12.659 21H19.341Z" fill="currentColor"/>
</svg>
