<svg width="32" height="32" viewBox="0 0 32 32" fill="none" xmlns="http://www.w3.org/2000/svg">
<path d="M28.8042 6.2284C27.3916 4.35489 25.5761 2.82278 23.4917 1.74532C21.4074 0.667848 19.1075 0.0725693 16.7622 0.00347733C13.0782 -0.0700433 10.5328 1.037 9.09276 1.92718C11.0194 0.80956 13.8073 0.175907 16.2486 0.206849C22.5288 0.286188 29.2731 4.56335 30.2746 12.2719C31.4245 21.1206 25.2617 28.506 16.5916 28.5282C7.05295 28.5528 1.25276 20.1069 2.76786 12.5208C2.8435 12.1421 2.80568 11.7737 2.93209 11.4156C3.00429 10.0816 3.50809 7.99078 4.59504 5.85472C3.49699 6.42278 2.09824 8.2206 1.40773 9.88592C0.403024 12.4262 0.0485 15.1771 0.376326 17.8891C0.400127 18.0948 0.421549 18.2998 0.448524 18.5037C0.859677 20.8723 1.80281 23.1167 3.20692 25.068C4.61103 27.0193 6.43952 28.6266 8.55473 29.769C10.6699 30.9114 13.0168 31.559 15.4185 31.6631C17.8202 31.7672 20.2143 31.3251 22.4204 30.37C24.6265 29.415 26.5872 27.9719 28.1549 26.1494C29.7226 24.3269 30.8564 22.1726 31.471 19.8485C32.0856 17.5244 32.1649 15.0911 31.703 12.7319C31.241 10.3728 30.2499 8.14911 28.8042 6.2284V6.2284Z" fill="black"/>
<path d="M30.661 11.8318C29.7679 3.77578 22.5835 0.154754 16.2486 0.206853C13.8073 0.226952 11.0194 0.809564 9.09248 1.92718C8.58269 2.22986 8.10899 2.58955 7.68052 2.99932C7.73156 2.957 7.88415 2.83138 8.13724 2.65763L8.16369 2.64018L8.18564 2.62537C9.12022 1.99318 10.15 1.51479 11.236 1.20837C12.9376 0.73816 14.7013 0.531946 16.4654 0.596935C19.7395 0.792314 22.8234 2.20043 25.1154 4.54659C27.4075 6.89274 28.7432 10.0086 28.8621 13.2864C29.0079 18.5251 24.7199 22.7031 19.777 22.9451C16.1822 23.121 12.7952 21.3816 11.141 17.9015C10.754 17.109 10.4913 16.2616 10.3622 15.3891C9.57804 10.0933 13.1345 5.57704 16.3967 4.45889C14.6372 2.92209 10.2289 3.02629 6.94795 5.44004C4.58392 7.17836 3.05109 9.82325 2.54332 12.9786C2.17809 15.3987 2.49972 17.8727 3.47159 20.1191C4.48176 22.5006 6.1318 24.5559 8.23875 26.057C10.3457 27.5581 12.8272 28.4463 15.4081 28.6231C15.8016 28.6529 16.1961 28.6678 16.5916 28.6678C27.0889 28.6691 31.644 20.7006 30.661 11.8318V11.8318Z" fill="black" fill-opacity="0.7"/>
<path fill-rule="evenodd" clip-rule="evenodd" d="M26.8959 4.19786C27.7644 5.12436 28.4247 6.22588 28.8325 7.42854C28.9188 7.68976 28.9954 7.95782 29.0618 8.23124C29.5348 9.7443 29.7183 11.353 29.6463 12.9304C29.4643 16.9167 26.5613 22.5323 19.7771 22.9451C16.1851 23.1635 12.796 21.3816 11.1389 17.9026C10.5335 16.2957 10.4783 14.0295 11.4592 12.5628C12.5514 10.9284 14.1226 10.5759 14.958 10.756C11.8596 13.3951 13.3609 19.5028 19.3174 19.8617C19.4289 19.8684 19.54 19.8724 19.6506 19.8735C19.571 19.8711 19.4914 19.8678 19.4116 19.8636C21.6595 19.8813 24.0685 18.2498 25.193 16.5126C26.7071 14.171 26.8909 10.202 24.9489 7.0448C24.4681 6.27361 23.8911 5.56675 23.2317 4.94126C21.6052 3.41183 19.6201 2.31599 17.4592 1.75455C15.2982 1.1931 13.0308 1.18407 10.8655 1.7283C9.75114 2.00575 8.67951 2.43277 7.67975 2.99773C8.93357 1.77776 10.916 0.802684 13.1703 0.326651C15.3393 -0.121428 17.5783 -0.108363 19.7419 0.364998C20.9691 0.643654 22.1593 1.06554 23.2881 1.62199C23.5753 1.75514 23.8568 1.89943 24.1318 2.05442C24.5959 2.30949 25.0281 2.59274 25.4295 2.90064C25.9518 3.2915 26.4423 3.72518 26.8959 4.19786Z" fill="black" fill-opacity="0.8"/>
</svg>
