<svg width="211" height="46" viewBox="0 0 211 46" fill="none" xmlns="http://www.w3.org/2000/svg">
<g>
<path d="M6.8 25.4L13.56 19.32L10.84 16.4L2 24.52V26.44L10.88 34.64L13.64 31.6L6.8 25.4Z" fill="#586871"/>
<path d="M177.293 36.891H181.649L193.859 11.448H189.503L177.293 36.891Z" fill="#586871"/>
<path d="M199.389 16.4L196.629 19.32L203.389 25.44L196.589 31.6L199.349 34.64L208.229 26.44V24.52L199.389 16.4Z" fill="#586871"/>
</g>
<g id="workmark">
<path d="M32.7347 36.48C35.9747 36.48 39.6947 34.96 41.8147 32.12L37.6947 28.52C36.5747 29.76 35.1347 30.92 32.8547 30.92C30.4547 30.92 28.1747 29.32 28.1747 26C28.1747 22.64 30.7347 21 32.8547 21C34.6947 21 36.3747 22.04 37.6147 23.48L41.8147 19.8C39.6547 16.88 36.0147 15.52 32.7347 15.52C25.5347 15.52 22.0547 20.8 22.0547 26.08C22.0547 31.28 25.3347 36.48 32.7347 36.48Z" fill="#FFF067"/>
<path d="M56.0941 36.48C63.3741 36.48 67.0941 31.28 67.0941 26.08C67.0941 20.8 63.5341 15.52 56.2541 15.52C49.0141 15.52 45.4141 20.8 45.4141 26.08C45.4141 31.28 48.8141 36.48 56.0941 36.48ZM56.2141 31.12C53.6141 31.12 51.4141 29.36 51.4141 26C51.4141 22.72 53.6541 20.92 56.2941 20.92C58.9341 20.92 61.1741 22.72 61.1741 26C61.1741 29.36 58.8141 31.12 56.2141 31.12Z" fill="#FFF067"/>
<path d="M90.8875 15.52C88.6475 15.52 86.9675 16.76 85.8875 18.64C85.0875 16.4 83.5675 15.52 81.2875 15.52C79.2475 15.52 77.8875 16.52 77.0075 18.04V16H71.4875V36H77.0075V26.92C77.0075 24.48 77.0875 21.48 79.2075 21.48C80.0875 21.48 81.0475 21.8 81.0475 24.48V36H86.5675V27.08C86.5675 22.72 87.3275 21.48 88.6875 21.48C89.8475 21.48 90.5675 22.16 90.5675 24.52V36H96.0875V22.72C96.0875 17.16 94.0075 15.52 90.8875 15.52Z" fill="#FFF067"/>
<path d="M113.803 15.52C111.523 15.52 108.923 16.52 107.683 18.76V16H101.683V44H107.683V34.68C109.043 35.68 110.843 36.48 113.363 36.48C119.123 36.48 122.283 32.32 122.523 26.08C122.723 20 119.363 15.52 113.803 15.52ZM116.643 26.32C116.563 28.56 115.563 30.92 112.363 30.92C110.483 30.92 108.923 30.08 107.683 29.24V25.64C108.163 22.8 109.843 21.08 112.363 21.08C115.243 21.08 116.763 23 116.643 26.32Z" fill="#FFF067"/>
<path d="M144.517 29.88V22.6C144.517 16.44 139.117 15.52 136.437 15.52C130.117 15.52 127.877 18.6 127.197 19.52L130.237 22.76C131.437 21.72 133.237 20.52 135.677 20.52C138.237 20.52 138.917 22.04 138.917 23.24V24.28C137.277 23.8 135.477 23.52 133.837 23.52C129.717 23.52 126.117 25.52 126.117 30.04C126.117 34.12 129.157 36.48 133.637 36.48C136.157 36.48 138.357 35.76 139.757 34.36C140.477 35.56 141.757 36.48 144.117 36.48C145.277 36.48 146.317 36.2 147.157 35.92V31.28C145.077 31.96 144.517 31.36 144.517 29.88ZM134.117 31.44C132.317 31.44 131.637 30.68 131.637 29.96C131.637 28.64 133.077 28.24 135.037 28.24C136.077 28.24 137.597 28.4 138.917 28.68V30.24C137.237 31.44 134.757 31.44 134.117 31.44Z" fill="#FFF067"/>
<path d="M168.326 29.28C166.806 30.4 165.206 30.96 163.686 30.96C162.046 30.96 160.366 30.12 160.366 27.4V21.2H167.166V16H160.366V8.79999H154.446V16H150.366V21.2H154.446V28C154.446 33.24 157.406 36.48 162.726 36.48C165.526 36.48 168.566 35.52 171.046 33.52L168.326 29.28Z" fill="#FFF067"/>
</g>
</svg>
