<svg width="32" height="32" viewBox="0 0 32 32" fill="none" xmlns="http://www.w3.org/2000/svg">
<path d="M29.7893 8.06195C29.8134 7.99035 29.8057 7.91086 29.7662 7.84444C28.3734 5.49869 26.3914 3.53375 24.0342 2.16219C21.6049 0.74844 18.8266 0.00119019 16 0.00119019C11.1082 0.00119019 6.54932 2.1965 3.49219 6.02419C3.42475 6.10857 3.41594 6.2255 3.46994 6.319L7.97407 14.1202C8.02125 14.202 8.10838 14.2513 8.20113 14.2513C8.21288 14.2513 8.22482 14.2505 8.23669 14.2489C8.34225 14.2345 8.42857 14.1577 8.45525 14.0546C9.34338 10.6134 12.4459 8.21 16 8.21C16.2206 8.21 16.4483 8.22007 16.6772 8.23957L16.6837 8.24011L16.6897 8.24043L16.6997 8.24063H18.4632C18.9474 8.0844 19.4638 8 20 8H29C29.2686 8 29.5322 8.02118 29.7893 8.06195Z" fill="black"/>
<path d="M15 23.7268V29C15 29.229 15.0154 29.4544 15.0452 29.6753L13.8789 31.6954C13.8316 31.7772 13.7444 31.8266 13.6518 31.8266C13.6389 31.8266 13.6259 31.8257 13.6129 31.8237C9.86156 31.2624 6.41838 29.3681 3.91731 26.4897C1.39119 23.5823 0 19.8574 0 16.0011C0 13.2522 0.71 10.5396 2.05306 8.15637C2.09919 8.07437 2.186 8.02343 2.28019 8.02293H2.28156C2.37525 8.02293 2.46187 8.07275 2.50869 8.15406L8.93388 19.2825L8.93867 19.2912C8.9406 19.2949 8.94245 19.2985 8.94419 19.3022C10.0819 21.7239 12.3928 23.3848 15 23.7268Z" fill="black"/>
<path d="M15.9835 10.0216C15.3656 10.8535 15 11.8841 15 13V21.8969C12.1771 21.4197 10.0203 18.9576 10.0203 16.0011C10.0203 12.7094 12.6938 10.0304 15.9835 10.0216Z" fill="black"/>
<rect x="17" y="10" width="15" height="22" rx="3" fill="black" fill-opacity="0.3"/>
<path fill-rule="evenodd" clip-rule="evenodd" d="M20 12H29C29.5523 12 30 12.4477 30 13V29C30 29.5523 29.5523 30 29 30H20C19.4477 30 19 29.5523 19 29V13C19 12.4477 19.4477 12 20 12ZM17 13C17 11.3431 18.3431 10 20 10H29C30.6569 10 32 11.3431 32 13V29C32 30.6569 30.6569 32 29 32H20C18.3431 32 17 30.6569 17 29V13ZM22.5 14C22.2239 14 22 14.2239 22 14.5C22 14.7761 22.2239 15 22.5 15H26.5C26.7761 15 27 14.7761 27 14.5C27 14.2239 26.7761 14 26.5 14H22.5Z" fill="black"/>
</svg>
