<svg width="32" height="32" viewBox="0 0 32 32" fill="none" xmlns="http://www.w3.org/2000/svg">
<path d="M0 16.0015C0 7.1654 7.16314 0.00225234 15.9992 0.00225234C16.0094 0.00225234 16.0191 0.0017394 16.0292 0.00193765C16.0392 0.0021359 16.0493 0.00233416 16.0594 0.00233416C20.1329 0.0174608 23.846 1.55457 26.6627 4.07434C24.7871 2.82978 22.5941 2.11414 20.2503 2.11414C16.4404 2.11414 13.0282 4.00429 10.7329 6.98497C8.96417 9.07279 7.81833 12.1604 7.74032 15.6247V16.3781C7.81839 19.8425 8.96423 22.9295 10.7334 25.0178C11.8988 26.5315 13.3525 27.7639 15 28.6104V29C15 30.126 15.3722 31.165 16.0003 32.0008C16 32.0008 16.0005 32.0008 16.0003 32.0008C15.7447 32.0008 15.4904 31.9941 15.2373 31.9821C6.75506 31.5848 0 24.5819 0 16.0015Z" fill="currentColor"/>
<path d="M29.9033 8.08141C29.0437 6.57598 27.9467 5.22366 26.6634 4.07546C24.7876 2.8309 22.5946 2.11526 20.251 2.11526C16.4441 2.11526 13.0344 4.00216 10.7395 6.97839C12.2069 5.2496 14.1005 4.20743 16.1691 4.20743C18.6186 4.20743 20.824 5.66784 22.3646 8.00001H29C29.3084 8.00001 29.6103 8.02794 29.9033 8.08141Z" fill="currentColor" fill-opacity="0.6"/>
<path d="M15 28.6116V27.6846C13.387 27.3717 11.9203 26.4204 10.7335 25.019C11.899 26.5327 13.3525 27.7651 15 28.6116Z" fill="currentColor" fill-opacity="0.6"/>
<rect x="17" y="10" width="15" height="22" rx="3" fill="currentColor" fill-opacity="0.3"/>
<path fill-rule="evenodd" clip-rule="evenodd" d="M20 12H29C29.5523 12 30 12.4477 30 13V29C30 29.5523 29.5523 30 29 30H20C19.4477 30 19 29.5523 19 29V13C19 12.4477 19.4477 12 20 12ZM17 13C17 11.3431 18.3431 10 20 10H29C30.6569 10 32 11.3431 32 13V29C32 30.6569 30.6569 32 29 32H20C18.3431 32 17 30.6569 17 29V13ZM22.5 14C22.2239 14 22 14.2239 22 14.5C22 14.7761 22.2239 15 22.5 15H26.5C26.7761 15 27 14.7761 27 14.5C27 14.2239 26.7761 14 26.5 14H22.5Z" fill="currentColor"/>
</svg>
