<svg width="32" height="32" viewBox="0 0 32 32" fill="none" xmlns="http://www.w3.org/2000/svg">
<path d="M15 14.9999L13.9 13.8999L7.70001 24.2999L15 19.948V14.9999Z" fill="black" fill-opacity="0.5"/>
<path d="M24.121 8L24.2999 7.70001L23.7967 8H24.121Z" fill="black"/>
<path d="M15 15.0001V13.2441L13.8999 13.9L15 15.0001Z" fill="black"/>
<path d="M0 16C0 7.2 7.2 0 16 0C21.9232 0 27.1217 3.2621 29.8874 8.07851C29.5994 8.02692 29.3028 7.99999 29 7.99999H26.2606C23.8852 4.9533 20.1783 2.99997 16 2.99997C8.8 2.99997 3.00008 8.80011 3.00008 16C3.00008 22.8634 8.27047 28.4546 15 28.9623V29C15 30.1256 15.372 31.1643 15.9996 32C7.19981 31.9998 0 24.7999 0 16Z" fill="black"/>
<rect x="17" y="10" width="15" height="22" rx="3" fill="black" fill-opacity="0.3"/>
<path fill-rule="evenodd" clip-rule="evenodd" d="M20 12H29C29.5523 12 30 12.4477 30 13V29C30 29.5523 29.5523 30 29 30H20C19.4477 30 19 29.5523 19 29V13C19 12.4477 19.4477 12 20 12ZM17 13C17 11.3431 18.3431 10 20 10H29C30.6569 10 32 11.3431 32 13V29C32 30.6569 30.6569 32 29 32H20C18.3431 32 17 30.6569 17 29V13ZM22.5 14C22.2239 14 22 14.2239 22 14.5C22 14.7761 22.2239 15 22.5 15H26.5C26.7761 15 27 14.7761 27 14.5C27 14.2239 26.7761 14 26.5 14H22.5Z" fill="black"/>
</svg>
