<svg width="32" height="32" viewBox="0 0 32 32" fill="none" xmlns="http://www.w3.org/2000/svg">
<path d="M16.1994 32C15.7584 32 15.3468 31.8824 14.9646 31.6766L11.0547 29.3542C10.4667 29.0308 10.7607 28.9132 10.9371 28.8544C11.7308 28.5898 11.8778 28.531 12.701 28.0606C12.7892 28.0018 12.9068 28.0312 12.9949 28.09L15.9936 29.8833C16.1112 29.9421 16.2582 29.9421 16.3463 29.8833L28.0762 23.0923C28.1938 23.0335 28.2526 22.9159 28.2526 22.7689V9.21635C28.2526 9.06936 28.1938 8.95177 28.0762 8.89297L16.3463 2.13137C16.2288 2.07258 16.0818 2.07258 15.9936 2.13137L4.26367 8.89297C4.14607 8.95177 4.08728 9.09876 4.08728 9.21635V22.7689C4.08728 22.8865 4.14607 23.0335 4.26367 23.0923L7.46807 24.9444C9.20257 25.8264 10.2903 24.7974 10.2903 23.7685V10.3923C10.2903 10.2159 10.4373 10.0395 10.6431 10.0395H12.1424C12.3188 10.0395 12.4952 10.1865 12.4952 10.3923V23.7685C12.4952 26.0909 11.2311 27.4433 9.02618 27.4433C8.35002 27.4433 7.82085 27.4433 6.32154 26.7083L3.23473 24.9444C2.47037 24.5034 2 23.6803 2 22.7983V9.24575C2 8.3638 2.47037 7.54065 3.23473 7.09968L14.9646 0.308682C15.6996 -0.102894 16.6991 -0.102894 17.4341 0.308682L29.164 7.09968C29.9283 7.54065 30.3987 8.3638 30.3987 9.24575V22.7983C30.3987 23.6803 29.9283 24.5034 29.164 24.9444L17.4341 31.7354C17.0519 31.9118 16.6109 32 16.1994 32ZM19.8153 22.6808C14.6706 22.6808 13.6123 20.3289 13.6123 18.3298C13.6123 18.1534 13.7593 17.977 13.9651 17.977H15.4938C15.6702 17.977 15.8172 18.0946 15.8172 18.271C16.0524 19.8291 16.7285 20.5935 19.8447 20.5935C22.3142 20.5935 23.3725 20.0349 23.3725 18.712C23.3725 17.9476 23.0785 17.3891 19.2274 17.0069C16.023 16.6835 14.0239 15.978 14.0239 13.4203C14.0239 11.039 16.023 9.62793 19.3744 9.62793C23.1373 9.62793 24.9894 10.9215 25.2246 13.7437C25.2246 13.8319 25.1952 13.9201 25.1364 14.0083C25.0776 14.0671 24.9894 14.1259 24.9012 14.1259H23.3725C23.2255 14.1259 23.0785 14.0083 23.0491 13.8613C22.6964 12.2444 21.785 11.7152 19.3744 11.7152C16.6697 11.7152 16.3463 12.6559 16.3463 13.3615C16.3463 14.2141 16.7285 14.4786 20.3739 14.949C23.9899 15.4194 25.695 16.0955 25.695 18.6238C25.6656 21.2108 23.5489 22.6808 19.8153 22.6808Z" fill="currentColor"/>
</svg>
