<svg width="32" height="32" viewBox="0 0 32 32" fill="none" xmlns="http://www.w3.org/2000/svg">
<path d="M15.9992 0.00226568C7.16314 0.00226568 0 7.16541 0 16.0015C0 24.5819 6.75506 31.5848 15.2373 31.9821C15.4904 31.9941 15.7439 32.0008 15.9995 32.0008C20.0957 32.0008 23.8315 30.4606 26.6621 27.9292C24.7866 29.173 22.594 29.8886 20.2507 29.8886C16.4406 29.8886 13.0283 27.9985 10.7334 25.0178C8.96423 22.9295 7.81839 19.8425 7.74032 16.3781V15.6247C7.81833 12.1604 8.96417 9.0728 10.7329 6.98499C13.0282 4.0043 16.4404 2.11415 20.2503 2.11415C22.5941 2.11415 24.7871 2.82979 26.6627 4.07435C23.846 1.55458 20.1329 0.0174741 16.0594 0.00234749C16.0391 0.00234749 16.0192 0.00155515 15.9989 0.00155515L15.9992 0.00226568Z" fill="black"/>
<path d="M10.7332 6.98592C12.2014 5.25262 14.0975 4.20742 16.1691 4.20742C20.827 4.20742 24.6023 9.48819 24.6023 16.0022C24.6023 22.5163 20.8267 27.7971 16.1691 27.7971C14.0975 27.7971 12.2014 26.7523 10.7335 25.019C13.0285 27.9996 16.4405 29.8898 20.2509 29.8898C22.5944 29.8898 24.787 29.1742 26.6622 27.9304C29.937 25.0007 31.9991 20.7424 31.9991 16.0024C31.9991 11.2629 29.9374 7.00483 26.6634 4.07545C24.7876 2.83089 22.5946 2.11525 20.251 2.11525C16.4409 2.11525 13.0286 4.00541 10.7336 6.98609" fill="black" fill-opacity="0.6"/>
</svg>
