<svg width="32" height="32" viewBox="0 0 32 32" fill="none" xmlns="http://www.w3.org/2000/svg">
<path d="M16 0C7.2 0 0 7.2 0 16C0 24.8 7.2 32 16 32C24.8 32 32 24.8 32 16C32 7.2 24.7999 0 16 0ZM16 28.9999C8.8 28.9999 3.00008 23.1999 3.00008 16C3.00008 8.80011 8.8 2.99997 16 2.99997C23.2 2.99997 28.9999 8.8 28.9999 16C28.9999 23.2 23.1999 28.9999 16 28.9999Z" fill="currentColor"/>
<path d="M24.2999 7.70001L18.0999 18.1L13.8999 13.9C13.9 13.9 24.2999 7.70001 24.2999 7.70001Z" fill="currentColor"/>
<path d="M7.70001 24.2999L18.1 18.0999L13.9 13.8999C13.9 13.9 7.70001 24.2999 7.70001 24.2999Z" fill="currentColor" fill-opacity="0.5"/>
</svg>
