<svg width="32" height="32" viewBox="0 0 32 32" fill="none" xmlns="http://www.w3.org/2000/svg">
<path fill-rule="evenodd" clip-rule="evenodd" d="M11.6302 12C10.7526 12 10.0625 12.75 10.1354 13.6246L10.8854 22.6246C10.9502 23.402 11.6001 24 12.3802 24H19.6198C20.3999 24 21.0498 23.402 21.1146 22.6246L21.8646 13.6246C21.9375 12.75 21.2474 12 20.3698 12H11.6302ZM13 15C13 14.4477 13.4477 14 14 14C14.5523 14 15 14.4477 15 15V21C15 21.5523 14.5523 22 14 22C13.4477 22 13 21.5523 13 21V15ZM17 15C17 14.4477 17.4477 14 18 14C18.5523 14 19 14.4477 19 15V21C19 21.5523 18.5523 22 18 22C17.4477 22 17 21.5523 17 21V15Z" fill="currentColor"/>
<line x1="11" y1="9.5" x2="21" y2="9.5" stroke="currentColor" stroke-width="3" stroke-linecap="round"/>
</svg>
