<svg width="32" height="32" viewBox="0 0 32 32" fill="none" xmlns="http://www.w3.org/2000/svg">
<path fill-rule="evenodd" clip-rule="evenodd" d="M7.23804 20.7715L14.6888 7.36023C15.2603 6.33151 16.7397 6.33151 17.3112 7.36023L24.762 20.7715C25.3174 21.7713 24.5945 23 23.4507 23H8.54928C7.40555 23 6.6826 21.7713 7.23804 20.7715ZM14.5 12.5C14.5 11.6716 15.1716 11 16 11C16.8284 11 17.5 11.6716 17.5 12.5V15.5C17.5 16.3284 16.8284 17 16 17C15.1716 17 14.5 16.3284 14.5 15.5V12.5ZM17.5 19.5C17.5 20.3284 16.8284 21 16 21C15.1716 21 14.5 20.3284 14.5 19.5C14.5 18.6716 15.1716 18 16 18C16.8284 18 17.5 18.6716 17.5 19.5Z" fill="currentColor"/>
</svg>
