<svg width="18" height="18" viewBox="0 0 18 18" fill="none" xmlns="http://www.w3.org/2000/svg">
<path opacity="0.35" fill-rule="evenodd" clip-rule="evenodd" d="M6.75 9.08894L5.625 12.7812H12.375L11.25 9.08894L10.1933 9.28162C9.78518 9.35603 9.36392 9.28801 9 9.08894V9.08894C8.63608 8.88987 8.21482 8.82185 7.80674 8.89626L6.75 9.08894Z" fill="currentColor"/>
<path d="M10.375 5.125V7.02786C10.375 7.43538 10.4699 7.8373 10.6521 8.2018L12.3556 11.6087C12.6465 12.1905 12.2234 12.875 11.5729 12.875H6.42705C5.77659 12.875 5.35353 12.1905 5.64443 11.6087L7.34787 8.2018C7.53012 7.8373 7.625 7.43538 7.625 7.02786V5.125H10.375Z" stroke="currentColor" stroke-width="1.25" stroke-linejoin="bevel"/>
<path d="M6.5 5.25H11.5" stroke="currentColor" stroke-width="1.5" stroke-linecap="round" stroke-linejoin="round"/>
</svg>
