<svg width="32" height="32" viewBox="0 0 32 32" fill="none" xmlns="http://www.w3.org/2000/svg">
<path d="M31.9253 16.5298C31.9253 13.9886 31.2675 11.5968 30.1314 9.50398C35.0645 -1.55799 24.8994 0.0863568 24.3015 0.0863568C22.2087 0.504918 20.1159 1.17761 18.322 2.02968C11.4457 1.94746 5.46622 5.61734 3.5229 13.2411C7.11056 9.20501 9.65183 7.56066 11.1467 6.96272C10.8328 7.24674 10.5188 7.54571 10.2049 7.84468C7.81315 10.2365 5.86983 12.6282 4.22548 15.1695C2.95485 17.4118 1.53473 19.3551 0.787301 21.8964C-3.24882 36.546 9.45749 30.4171 11.2513 29.3707C13.1946 30.3274 15.2875 30.8506 17.6792 30.8506C23.9576 30.8506 29.3391 26.8145 31.2825 21.2835H23.6587C20.071 26.964 11.5503 24.4227 11.2513 18.2938H31.8804C31.9581 17.6809 32 17.068 32 16.4999L31.9253 16.5298ZM29.2345 2.32865C30.4752 3.16577 31.4768 4.42145 29.7577 8.90604C28.1134 6.21529 25.7216 4.12248 22.7319 3.07608C24.0623 2.43329 27.3659 1.13276 29.3092 2.32865H29.2345ZM2.77547 29.3856C1.75896 28.3542 1.57958 25.798 3.82187 21.1639C4.94301 24.4526 7.26005 27.1433 10.1003 28.7877C8.65027 29.58 4.86827 31.3289 2.77547 29.281V29.3856ZM11.1467 14.437C11.2618 11.1483 14.1364 8.45758 17.7241 8.45758C21.3117 8.45758 24.152 11.1483 24.3015 14.437H11.2962H11.1467Z" fill="currentColor"/>
</svg>
