<svg width="32" height="32" viewBox="0 0 32 32" fill="none" xmlns="http://www.w3.org/2000/svg">
<path d="M28.8325 7.42855C28.4247 6.2259 27.7644 5.12437 26.8959 4.19787C26.4423 3.72519 25.9518 3.29152 25.4295 2.90065C25.0281 2.59276 24.5959 2.3095 24.1318 2.05443C23.8568 1.89944 23.5753 1.75516 23.2881 1.622C22.1593 1.06556 20.9691 0.643669 19.7419 0.365013C17.5783 -0.108348 15.3393 -0.121413 13.1703 0.326666C10.916 0.802699 8.93357 1.77777 7.67975 2.99774C8.67951 2.43278 9.75114 2.00576 10.8655 1.72832C13.0308 1.18409 15.2982 1.19311 17.4592 1.75456C19.6201 2.31601 21.6052 3.41185 23.2317 4.94128C23.8911 5.56677 24.4681 6.27363 24.9489 7.04482C25.1404 7.3561 25.3112 7.67527 25.4621 8L29.0029 8C28.9512 7.80637 28.8943 7.61571 28.8325 7.42855Z" fill="currentColor" fill-opacity="0.8"/>
<path d="M15 21.956V18.0805C12.8713 15.9786 12.8419 12.5584 14.958 10.756C14.1226 10.5759 12.5514 10.9284 11.4592 12.5628C10.4783 14.0295 10.5335 16.2957 11.1389 17.9026C12.0162 19.7443 13.3788 21.1105 15 21.956Z" fill="currentColor" fill-opacity="0.8"/>
<path d="M15 28.5892C12.5661 28.3507 10.2344 27.4788 8.23876 26.057C6.13182 24.5559 4.48178 22.5006 3.4716 20.1191C2.49974 17.8727 2.17811 15.3987 2.54334 12.9786C3.05111 9.82325 4.58394 7.17836 6.94797 5.44004C10.2289 3.02629 14.6372 2.92209 16.3967 4.45889C13.1345 5.57704 9.57805 10.0933 10.3622 15.3891C10.4914 16.2616 10.754 17.109 11.141 17.9015C12.017 19.7443 13.3788 21.099 15 21.9397V28.5892Z" fill="currentColor" fill-opacity="0.7"/>
<path d="M29.6693 8.04442C27.3071 2.63266 21.4874 0.163768 16.2486 0.206853C13.8073 0.226952 11.0194 0.809564 9.0925 1.92718C8.58271 2.22986 8.109 2.58955 7.68053 2.99932C7.73157 2.957 7.88417 2.83138 8.13726 2.65763L8.1637 2.64018L8.18565 2.62537C9.12024 1.99318 10.1501 1.51479 11.236 1.20837C12.9376 0.73816 14.7013 0.531946 16.4655 0.596935C19.7395 0.792314 22.8234 2.20043 25.1154 4.54659C26.1137 5.56845 26.9306 6.73633 27.5446 8H29C29.227 8 29.4504 8.01512 29.6693 8.04442Z" fill="currentColor" fill-opacity="0.7"/>
<path d="M23.4917 1.74532C25.5761 2.82278 27.3916 4.35489 28.8042 6.2284C29.254 6.82595 29.6598 7.45282 30.0193 8.10398C29.6911 8.036 29.3511 8.00019 29.0028 8C26.5484 2.99689 21.2512 0.270049 16.2486 0.206849C13.8073 0.175907 11.0194 0.80956 9.09276 1.92718C10.5328 1.037 13.0782 -0.0700433 16.7622 0.00347733C19.1075 0.0725693 21.4074 0.667848 23.4917 1.74532Z" fill="currentColor"/>
<path d="M15 28.4518C6.41645 27.5942 1.33899 19.6751 2.76787 12.5208C2.79855 12.3672 2.81056 12.2152 2.82244 12.065C2.83985 11.8449 2.85697 11.6284 2.9321 11.4156C3.0043 10.0816 3.5081 7.99078 4.59504 5.85472C3.49699 6.42278 2.09825 8.2206 1.40774 9.88592C0.403032 12.4262 0.0485076 15.1771 0.376333 17.8891C0.383181 17.9483 0.389831 18.0074 0.396474 18.0665C0.41292 18.2127 0.429317 18.3585 0.448532 18.5037C0.859685 20.8723 1.80282 23.1167 3.20693 25.068C4.61103 27.0193 6.43953 28.6266 8.55474 29.769C10.67 30.9114 13.0168 31.559 15.4185 31.6631C15.5372 31.6682 15.656 31.6721 15.7747 31.6745C15.2841 30.9011 15 29.9837 15 29V28.4518Z" fill="currentColor"/>
<rect x="17" y="10" width="15" height="22" rx="3" fill="currentColor" fill-opacity="0.3"/>
<path fill-rule="evenodd" clip-rule="evenodd" d="M20 12H29C29.5523 12 30 12.4477 30 13V29C30 29.5523 29.5523 30 29 30H20C19.4477 30 19 29.5523 19 29V13C19 12.4477 19.4477 12 20 12ZM17 13C17 11.3431 18.3431 10 20 10H29C30.6569 10 32 11.3431 32 13V29C32 30.6569 30.6569 32 29 32H20C18.3431 32 17 30.6569 17 29V13ZM22.5 14C22.2239 14 22 14.2239 22 14.5C22 14.7761 22.2239 15 22.5 15H26.5C26.7761 15 27 14.7761 27 14.5C27 14.2239 26.7761 14 26.5 14H22.5Z" fill="currentColor"/>
</svg>
