<svg width="32" height="32" viewBox="0 0 32 32" fill="none" xmlns="http://www.w3.org/2000/svg">
<path d="M28.1444 12.3576C30.0382 19.1558 26.0564 26.2065 19.2582 28.1002C12.4601 29.994 5.40942 26.0122 3.51565 19.2141C1.62188 12.4159 5.60366 5.36525 12.4018 3.47148C19.2 1.5777 26.2506 5.55948 28.1444 12.3576Z" fill="currentColor" fill-opacity="0.5"/>
<path d="M27.9751 19.7708C27.973 19.8003 27.9678 19.8252 27.9599 19.8453C27.8531 20.1172 26.8139 20.7194 24.386 20.7194C21.6765 20.7194 18.1511 19.9716 14.7326 18.6702C11.3141 17.3786 8.18696 15.5916 6.15723 13.795C4.34114 12.1828 3.95268 11.0369 4.0595 10.7649C4.06902 10.7407 4.08593 10.7139 4.11056 10.6851C4.92648 8.81404 6.18531 7.14452 7.79498 5.84189C7.73767 5.84138 7.68057 5.84113 7.62369 5.84113C2.37939 5.84113 0.76725 8.02625 0.271955 9.32761C-0.22334 10.629 -0.466132 13.3288 3.45738 16.8153C5.87559 18.9616 9.36208 20.9622 13.2856 22.448C17.2091 23.9339 21.1423 24.7594 24.3763 24.7594C29.6303 24.7594 31.2425 22.5743 31.728 21.2729C32.2233 19.9716 32.4661 17.2717 28.5426 13.7853C28.5099 13.7562 28.4769 13.7271 28.4438 13.6981C28.7926 15.782 28.6052 17.8581 27.9751 19.7708Z" fill="currentColor"/>
</svg>
