<svg width="18" height="18" viewBox="0 0 18 18" fill="none" xmlns="http://www.w3.org/2000/svg">
<path fill-rule="evenodd" clip-rule="evenodd" d="M6 4C5.58579 4 5.25 4.33579 5.25 4.75C5.25 5.16421 5.58579 5.5 6 5.5H12C12.4142 5.5 12.75 5.16421 12.75 4.75C12.75 4.33579 12.4142 4 12 4H6ZM6.56445 6C5.98763 6 5.53041 6.48668 5.56639 7.06238L5.94139 13.0624C5.97433 13.5894 6.41138 14 6.93945 14H11.0605C11.5886 14 12.0257 13.5894 12.0586 13.0624L12.4336 7.06238C12.4696 6.48668 12.0124 6 11.4355 6H6.56445ZM8.5 8.5C8.5 8.08579 8.16421 7.75 7.75 7.75C7.33578 7.75 7 8.08579 7 8.5V11.5C7 11.9142 7.33578 12.25 7.75 12.25C8.16421 12.25 8.5 11.9142 8.5 11.5V8.5ZM10.25 7.75C10.6642 7.75 11 8.08579 11 8.5V11.5C11 11.9142 10.6642 12.25 10.25 12.25C9.83578 12.25 9.5 11.9142 9.5 11.5V8.5C9.5 8.08579 9.83578 7.75 10.25 7.75Z" fill="currentColor"/>
</svg>
