<svg width="18" height="18" viewBox="0 0 18 18" fill="none" xmlns="http://www.w3.org/2000/svg">
<path fill-rule="evenodd" clip-rule="evenodd" d="M7.65835 4.68327C8.21114 3.5777 9.78885 3.5777 10.3416 4.68328L13.9146 11.8292C14.4133 12.8265 13.688 14 12.5729 14H5.42705C4.31197 14 3.58673 12.8265 4.0854 11.8292L7.65835 4.68327ZM8.99999 10.75C9.41421 10.75 9.74999 10.4142 9.74999 9.99999V6.99999C9.74999 6.58578 9.41421 6.24999 8.99999 6.24999C8.58578 6.24999 8.24999 6.58578 8.24999 6.99999V9.99999C8.24999 10.4142 8.58578 10.75 8.99999 10.75ZM8.99999 11.25C9.41421 11.25 9.74999 11.5858 9.74999 12C9.74999 12.4142 9.41421 12.75 8.99999 12.75C8.58578 12.75 8.24999 12.4142 8.24999 12C8.24999 11.5858 8.58578 11.25 8.99999 11.25Z" fill="currentColor"/>
</svg>
